HIERARCHY
ROOT Hips
{
	OFFSET 0.000000 0.000000 0.000000
	CHANNELS 6 Xposition Yposition Zposition Xrotation Yrotation Zrotation
	JOINT LeftUpLeg_virtual
	{
		OFFSET 0.000000 0.000000 0.000000
		CHANNELS 3 Xrotation Yrotation Zrotation
		JOINT LeftUpLeg
		{
			OFFSET 13.026900 -6.336304 -1.092800
			CHANNELS 3 Xrotation Yrotation Zrotation
			JOINT LeftLeg
			{
				OFFSET 0.524474 -46.096886 9.782700
				CHANNELS 3 Xrotation Yrotation Zrotation
				JOINT LeftFoot
				{
					OFFSET -0.524474 -53.427422 -12.948200
					CHANNELS 3 Xrotation Yrotation Zrotation
					JOINT LeftToeBase
					{
						OFFSET 0.192200 -14.009700 16.364100
						CHANNELS 3 Xrotation Yrotation Zrotation
						JOINT LeftToe_End
						{
							OFFSET -1.784700 -0.561700 9.474800
							CHANNELS 3 Xrotation Yrotation Zrotation
							End Site
							{
								OFFSET 0 0 0
							}
						}
					}
				}
			}
		}
	}
	JOINT RightUpLeg_virtual
	{
		OFFSET 0.000000 0.000000 0.000000
		CHANNELS 3 Xrotation Yrotation Zrotation
		JOINT RightUpLeg
		{
			OFFSET -12.883000 -6.336304 -1.092800
			CHANNELS 3 Xrotation Yrotation Zrotation
			JOINT RightLeg
			{
				OFFSET -0.524587 -46.096825 9.782800
				CHANNELS 3 Xrotation Yrotation Zrotation
				JOINT RightFoot
				{
					OFFSET 0.524587 -53.427383 -12.948300
					CHANNELS 3 Xrotation Yrotation Zrotation
					JOINT RightToeBase
					{
						OFFSET -0.192200 -14.009700 16.364100
						CHANNELS 3 Xrotation Yrotation Zrotation
						JOINT RightToe_End
						{
							OFFSET 1.784700 -0.561700 9.474800
							CHANNELS 3 Xrotation Yrotation Zrotation
							End Site
							{
								OFFSET 0 0 0
							}
						}
					}
				}
			}
		}
	}
	JOINT Spine_virtual
	{
		OFFSET 0.000000 0.000000 0.000000
		CHANNELS 3 Xrotation Yrotation Zrotation
		JOINT Spine
		{
			OFFSET 0.072000 7.257294 -0.789700
			CHANNELS 3 Xrotation Yrotation Zrotation
			JOINT Spine1
			{
				OFFSET 0.000000 12.508769 -0.658067
				CHANNELS 3 Xrotation Yrotation Zrotation
				JOINT Spine1_split
				{
					OFFSET 0.000000 12.508769 -0.658067
					CHANNELS 3 Xrotation Yrotation Zrotation
					JOINT Spine2
					{
						OFFSET 0.000000 12.508769 -0.658067
						CHANNELS 3 Xrotation Yrotation Zrotation
						JOINT Neck_virtual
						{
							OFFSET 0.000000 0.000000 0.000000
							CHANNELS 3 Xrotation Yrotation Zrotation
							JOINT Neck
							{
								OFFSET 0.000000 14.033295 7.520400
								CHANNELS 3 Xrotation Yrotation Zrotation
								JOINT Head
								{
									OFFSET 0.000000 8.198502 5.703100
									CHANNELS 3 Xrotation Yrotation Zrotation
									JOINT HeadTop_End
									{
										OFFSET 0.000000 17.760803 13.332701
										CHANNELS 3 Xrotation Yrotation Zrotation
										End Site
										{
											OFFSET 0 0 0
										}
									}
								}
							}
						}
						JOINT LeftShoulder_virtual
						{
							OFFSET 0.000000 0.000000 0.000000
							CHANNELS 3 Xrotation Yrotation Zrotation
							JOINT LeftShoulder
							{
								OFFSET 6.292450 5.785301 -0.669000
								CHANNELS 3 Xrotation Yrotation Zrotation
								JOINT LeftShoulder_split
								{
									OFFSET 6.292450 5.785301 -0.669000
									CHANNELS 3 Xrotation Yrotation Zrotation
									JOINT LeftArm
									{
										OFFSET 13.907140 -6.093903 1.965100
										CHANNELS 3 Xrotation Yrotation Zrotation
										JOINT LeftForeArm
										{
											OFFSET 34.140198 0.000000 0.000000
											CHANNELS 3 Xrotation Yrotation Zrotation
											JOINT LeftHand
											{
												OFFSET 40.960209 0.000000 0.000000
												CHANNELS 3 Xrotation Yrotation Zrotation
												End Site
												{
													OFFSET 0 0 0
												}
											}
										}
									}
								}
							}
						}
						JOINT RightShoulder_virtual
						{
							OFFSET 0.000000 0.000000 0.000000
							CHANNELS 3 Xrotation Yrotation Zrotation
							JOINT RightShoulder
							{
								OFFSET -6.292450 5.785301 -0.669000
								CHANNELS 3 Xrotation Yrotation Zrotation
								JOINT RightShoulder_split
								{
									OFFSET -6.292450 5.785301 -0.669000
									CHANNELS 3 Xrotation Yrotation Zrotation
									JOINT RightArm
									{
										OFFSET -13.907140 -6.093903 1.965100
										CHANNELS 3 Xrotation Yrotation Zrotation
										JOINT RightForeArm
										{
											OFFSET -34.140198 0.000000 0.000000
											CHANNELS 3 Xrotation Yrotation Zrotation
											JOINT RightHand
											{
												OFFSET -40.960209 0.000000 0.000000
												CHANNELS 3 Xrotation Yrotation Zrotation
												End Site
												{
													OFFSET 0 0 0
												}
											}
										}
									}
								}
							}
						}
					}
				}
			}
		}
	}
}
MOTION
Frames: 7
Frame Time: 0.03333333
1.853546 96.697159 -1.224499 0.000000 0.000000 0.000000 20.618379 -5.815360 -26.981624 -81.280979 -14.290768 18.866376 71.179997 -6.769134 9.429263 -6.452768 -1.498916 -7.200779 -4.681017 -0.284495 -0.647012 0.000000 0.000000 0.000000 21.067771 -2.686038 -29.175891 -18.960511 -23.161294 11.877004 21.029558 -8.301682 -1.002978 0.121031 -8.861483 12.903768 -4.793624 0.640365 1.236926 0.000000 0.000000 0.000000 18.406033 -5.389923 -27.482769 7.343941 3.217871 -17.901977 6.419940 3.121072 -11.232981 2.025780 0.584976 0.025167 0.000000 0.000000 0.000000 6.949352 3.083955 -10.889677 -0.508100 3.024780 -5.916137 -7.348152 17.593234 -4.462059 0.000000 0.000000 0.000000 6.643411 3.617805 -10.858668 0.256350 -3.902741 16.023842 -1.937904 -0.575880 -2.605610 -55.200417 -45.268872 -95.751739 4.070444 -59.313868 2.628984 0.000000 0.000000 0.000000 7.358871 3.242593 -11.298319 0.317669 -3.865983 -0.926018 7.335304 3.788580 -1.768783 -1.911921 60.589467 18.718289 -2.449144 76.420630 1.884222 0.000000 0.000000 0.000000 
2.121657 96.980705 -1.234776 0.000000 0.000000 0.000000 20.679820 -6.167425 -26.359184 -80.847733 -13.198652 19.341175 71.102973 -6.859020 9.347286 -6.930971 -1.265893 -7.085615 -4.553199 -0.338198 -0.652188 0.000000 0.000000 0.000000 21.033931 -3.062310 -28.498122 -19.727656 -23.338104 11.259370 21.409018 -8.481327 -0.962767 0.640793 -8.683522 12.764611 -4.594483 0.658720 1.207491 0.000000 0.000000 0.000000 18.510170 -5.589484 -26.949877 7.522208 3.093050 -17.583190 6.487504 3.026469 -11.050829 2.138612 0.848509 -0.323497 0.000000 0.000000 0.000000 6.838464 3.029261 -10.709059 0.766254 2.585092 -4.831927 -4.807880 17.442012 -3.148735 0.000000 0.000000 0.000000 6.762450 3.458681 -10.706570 0.060474 -3.608525 16.564682 -1.508589 -0.526335 -2.352112 -54.343598 -45.235083 -94.970536 3.256269 -58.883375 2.161408 0.000000 0.000000 0.000000 7.466963 3.197462 -11.109824 0.386300 -3.257587 -1.665290 7.171908 3.795639 -1.561008 -2.517295 61.476497 20.326660 -2.125354 74.645362 1.565978 0.000000 0.000000 0.000000 
2.363675 97.286797 -1.244144 0.000000 0.000000 0.000000 20.696044 -6.523926 -25.725645 -80.353767 -12.202793 19.912547 71.074566 -6.900609 9.202925 -7.314753 -0.971020 -7.072796 -4.457479 -0.384385 -0.684322 0.000000 0.000000 0.000000 20.973629 -3.333153 -27.823023 -20.524881 -23.407606 10.660037 21.817765 -8.694377 -0.928016 1.069627 -8.484604 12.648240 -4.409685 0.678433 1.151438 0.000000 0.000000 0.000000 18.470187 -5.920662 -26.362107 7.752377 2.954301 -17.394419 6.487136 2.906632 -10.781071 2.205049 1.182922 -0.410788 0.000000 0.000000 0.000000 6.659627 2.937238 -10.436462 2.290534 2.276754 -3.688151 -2.348921 17.203935 -1.715736 0.000000 0.000000 0.000000 6.799862 3.270996 -10.497353 -0.138771 -3.331468 16.863027 -0.910675 -0.327160 -2.049455 -52.855962 -45.255020 -93.684084 2.974111 -58.449576 2.100285 0.000000 0.000000 0.000000 7.470699 3.137979 -10.829680 0.430626 -2.643220 -2.407582 6.894974 3.903676 -1.311691 -3.907043 61.862758 22.845856 -1.895645 72.640783 1.220358 0.000000 0.000000 0.000000 
2.546585 97.609528 -1.269466 0.000000 0.000000 0.000000 20.698470 -6.934056 -25.051469 -79.820541 -11.242053 20.584899 71.071486 -6.874585 8.998947 -7.550441 -0.636542 -7.102401 -4.432386 -0.425080 -0.727186 0.000000 0.000000 0.000000 20.943879 -3.536841 -27.123245 -21.359303 -23.335770 10.116298 22.247629 -8.943060 -0.924117 1.326550 -8.305455 12.488584 -4.192932 0.695926 1.091301 0.000000 0.000000 0.000000 18.363302 -6.385909 -25.702063 8.013612 2.834175 -17.315880 6.467060 2.768636 -10.453463 2.196144 1.387588 -0.266189 0.000000 0.000000 0.000000 6.532343 2.827965 -10.113913 3.909963 2.158806 -2.570458 -0.304153 16.997339 -0.266794 0.000000 0.000000 0.000000 6.817516 3.089031 -10.273184 -0.313449 -3.127821 16.918799 -0.306634 -0.093251 -1.735386 -50.895872 -45.609483 -91.771890 3.133701 -58.051472 2.360806 0.000000 0.000000 0.000000 7.420866 3.068414 -10.505686 0.462246 -2.054326 -3.031364 6.512446 3.984381 -1.012582 -5.524817 61.905023 25.596699 -1.717221 70.882535 0.865449 0.000000 0.000000 0.000000 
2.654810 97.965866 -1.353729 0.000000 0.000000 0.000000 20.711760 -7.393437 -24.296409 -79.221465 -10.264237 21.305121 70.997358 -6.790998 8.785833 -7.709125 -0.289495 -7.159048 -4.438225 -0.461145 -0.760413 0.000000 0.000000 0.000000 21.004338 -3.718161 -26.359399 -22.278844 -23.146782 9.627667 22.713430 -9.223995 -0.968367 1.388319 -8.175662 12.220178 -3.895461 0.709893 1.043986 0.000000 0.000000 0.000000 18.312429 -6.942708 -24.968513 8.281572 2.754515 -17.291601 6.484799 2.647321 -10.126517 2.056556 1.204704 0.032463 0.000000 0.000000 0.000000 6.515917 2.723466 -9.800430 5.396869 2.260221 -1.577368 1.146272 16.909677 1.072278 0.000000 0.000000 0.000000 6.885232 2.935652 -10.098393 -0.410294 -3.007721 16.777858 0.104270 0.044925 -1.326776 -48.731696 -46.394268 -89.325057 3.554152 -57.827230 2.813483 0.000000 0.000000 0.000000 7.404610 3.005634 -10.213785 0.528491 -1.563405 -3.429193 6.066994 3.871988 -0.811791 -6.933923 61.812099 28.091540 -1.566231 69.845234 0.593996 0.000000 0.000000 0.000000 
2.679633 98.333794 -1.493912 0.000000 0.000000 0.000000 20.780084 -7.860378 -23.432658 -78.518707 -9.229763 21.988973 70.682192 -6.661686 8.596602 -7.930326 0.061133 -7.270246 -4.367805 -0.491863 -0.772531 0.000000 0.000000 0.000000 21.154855 -3.941476 -25.482191 -23.380040 -22.905123 9.148419 23.192273 -9.526703 -1.063201 1.329978 -8.094868 11.844322 -3.554112 0.715277 1.006727 0.000000 0.000000 0.000000 18.350206 -7.567170 -24.125195 8.529430 2.729323 -17.236006 6.586810 2.575983 -9.848528 1.977430 0.718527 0.274709 0.000000 0.000000 0.000000 6.622383 2.658029 -9.550578 6.605632 2.533555 -0.799077 2.027774 17.005918 2.177778 0.000000 0.000000 0.000000 7.055561 2.830500 -10.015282 -0.415639 -2.987291 16.543137 0.311083 -0.074474 -0.882002 -46.469185 -47.294552 -86.544063 3.966362 -58.120183 3.262142 0.000000 0.000000 0.000000 7.497756 2.966025 -10.011775 0.615119 -1.224789 -3.619677 5.725009 3.772851 -0.744831 -7.672495 61.805419 29.826565 -1.391168 69.584130 0.441957 0.000000 0.000000 0.000000 
2.624653 98.719765 -1.733799 0.000000 0.000000 0.000000 20.903283 -8.284794 -22.471374 -77.694570 -8.147035 22.572595 70.006919 -6.499060 8.459700 -8.274819 0.402985 -7.562215 -4.221376 -0.509313 -0.754572 0.000000 0.000000 0.000000 21.326822 -4.327873 -24.464575 -24.750162 -22.659250 8.656128 23.668967 -9.796270 -1.209616 1.272665 -8.014676 11.470511 -3.284739 0.707324 0.963250 0.000000 0.000000 0.000000 18.534782 -8.241824 -23.160246 8.754524 2.743996 -17.079231 6.779589 2.585580 -9.646378 1.943260 0.249711 0.285570 0.000000 0.000000 0.000000 6.820001 2.665940 -9.374688 7.501768 2.851920 -0.292523 2.517470 17.232967 2.965867 0.000000 0.000000 0.000000 7.327464 2.811494 -10.023692 -0.311544 -3.030361 16.361141 0.357166 -0.409096 -0.593898 -44.489107 -47.884264 -83.936495 4.126405 -59.211265 3.535184 0.000000 0.000000 0.000000 7.733771 2.992716 -9.905233 0.754543 -1.037206 -3.621187 5.641866 3.718363 -0.923100 -7.747040 62.065034 30.803760 -1.115175 69.562991 0.377731 0.000000 0.000000 0.000000 
